name Walk1.mot
datacolumns 19
datarows 27
range 1.23600000 1.26200000
endheader

                time	   L_ground_force_vx	   L_ground_force_vy	   L_ground_force_vz	   L_ground_force_px	   L_ground_force_py	   L_ground_force_pz	   R_ground_force_vx	   R_ground_force_vy	   R_ground_force_vz	   R_ground_force_px	   R_ground_force_py	   R_ground_force_pz	   L_ground_torque_x	   L_ground_torque_y	   L_ground_torque_z	   R_ground_torque_x	   R_ground_torque_y	   R_ground_torque_z	
          1.23600000	          0.00000000	          0.00000000	          0.00000000	          0.00000000	          0.00000000	          0.00000000	          0.00000000	          0.00000000	          0.00000000	          0.00000000	          0.00000000	          0.00000000	          0.00000000	          0.00000000	          0.00000000	          0.00000000	          0.00000000	          0.00000000	
          1.23700000	          0.00000000	          0.00000000	          0.00000000	          0.00000000	          0.00000000	          0.00000000	          0.00000000	          0.00000000	          0.00000000	          0.00000000	          0.00000000	          0.00000000	          0.00000000	          0.00000000	          0.00000000	          0.00000000	          0.00000000	          0.00000000	
          1.23800000	          0.00000000	          0.00000000	          0.00000000	          0.00000000	          0.00000000	          0.00000000	          0.00000000	          0.00000000	          0.00000000	          0.00000000	          0.00000000	          0.00000000	          0.00000000	          0.00000000	          0.00000000	          0.00000000	          0.00000000	          0.00000000	
          1.23900000	          0.00000000	          0.00000000	          0.00000000	          0.00000000	          0.00000000	          0.00000000	          0.00000000	          0.00000000	          0.00000000	          0.00000000	          0.00000000	          0.00000000	          0.00000000	          0.00000000	          0.00000000	          0.00000000	          0.00000000	          0.00000000	
          1.24000000	          0.00000000	          0.00000000	          0.00000000	          0.00000000	          0.00000000	          0.00000000	          0.00000000	          0.00000000	          0.00000000	          0.00000000	          0.00000000	          0.00000000	          0.00000000	          0.00000000	          0.00000000	          0.00000000	          0.00000000	          0.00000000	
          1.24100000	          0.00000000	          0.00000000	          0.00000000	          0.00000000	          0.00000000	          0.00000000	          0.00000000	          0.00000000	          0.00000000	          0.00000000	          0.00000000	          0.00000000	          0.00000000	          0.00000000	          0.00000000	          0.00000000	          0.00000000	          0.00000000	
          1.24200000	          0.00000000	          0.00000000	          0.00000000	          0.00000000	          0.00000000	          0.00000000	          3.75257758	         18.84339634	         -1.35417081	         -0.29311001	          0.00000000	         -0.04576442	          0.00000000	          0.00000000	          0.00000000	          0.00000000	         -0.01814719	          0.00000000	
          1.24300000	          0.00000000	          0.00000000	          0.00000000	          0.00000000	          0.00000000	          0.00000000	          5.93172831	         37.18981644	         -1.98631103	         -0.29089038	          0.00000000	         -0.04324650	          0.00000000	          0.00000000	          0.00000000	          0.00000000	          0.00106346	          0.00000000	
          1.24400000	          0.00000000	          0.00000000	          0.00000000	          0.00000000	          0.00000000	          0.00000000	          8.45711682	         63.08674463	         -2.64950097	         -0.28946846	          0.00000000	         -0.04150382	          0.00000000	          0.00000000	          0.00000000	          0.00000000	          0.02903613	          0.00000000	
          1.24500000	          0.00000000	          0.00000000	          0.00000000	          0.00000000	          0.00000000	          0.00000000	         11.27875848	         97.04042818	         -3.38680430	         -0.28844655	          0.00000000	         -0.04013148	          0.00000000	          0.00000000	          0.00000000	          0.00000000	          0.06144551	          0.00000000	
          1.24600000	          0.00000000	          0.00000000	          0.00000000	          0.00000000	          0.00000000	          0.00000000	         14.24559153	        137.99678184	         -4.30217273	         -0.28771365	          0.00000000	         -0.03905893	          0.00000000	          0.00000000	          0.00000000	          0.00000000	          0.10197022	          0.00000000	
          1.24700000	          0.00000000	          0.00000000	          0.00000000	          0.00000000	          0.00000000	          0.00000000	         17.01875215	        182.72985737	         -5.51364003	         -0.28722753	          0.00000000	         -0.03825284	          0.00000000	          0.00000000	          0.00000000	          0.00000000	          0.15250280	          0.00000000	
          1.24800000	          0.00000000	          0.00000000	          0.00000000	          0.00000000	          0.00000000	          0.00000000	         19.12541036	        226.21646948	         -7.10526613	         -0.28691971	          0.00000000	         -0.03762271	          0.00000000	          0.00000000	          0.00000000	          0.00000000	          0.20676653	          0.00000000	
          1.24900000	          0.00000000	          0.00000000	          0.00000000	          0.00000000	          0.00000000	          0.00000000	         20.09575099	        263.06403291	         -9.08816315	         -0.28669221	          0.00000000	         -0.03704996	          0.00000000	          0.00000000	          0.00000000	          0.00000000	          0.25432628	          0.00000000	
          1.25000000	          0.00000000	          0.00000000	          0.00000000	          0.00000000	          0.00000000	          0.00000000	         19.60525789	        289.34331233	        -11.38029525	         -0.28645311	          0.00000000	         -0.03646389	          0.00000000	          0.00000000	          0.00000000	          0.00000000	          0.28709657	          0.00000000	
          1.25100000	          0.00000000	          0.00000000	          0.00000000	          0.00000000	          0.00000000	          0.00000000	         17.58154131	        303.78369539	        -13.81922646	         -0.28613026	          0.00000000	         -0.03589078	          0.00000000	          0.00000000	          0.00000000	          0.00000000	          0.30503958	          0.00000000	
          1.25200000	          0.00000000	          0.00000000	          0.00000000	          0.00000000	          0.00000000	          0.00000000	         14.22831707	        307.78739547	        -16.20501380	         -0.28568224	          0.00000000	         -0.03540224	          0.00000000	          0.00000000	          0.00000000	          0.00000000	          0.31543201	          0.00000000	
          1.25300000	          0.00000000	          0.00000000	          0.00000000	          0.00000000	          0.00000000	          0.00000000	          9.94364203	        304.51940935	        -18.35236250	         -0.28511660	          0.00000000	         -0.03501686	          0.00000000	          0.00000000	          0.00000000	          0.00000000	          0.32588450	          0.00000000	
          1.25400000	          0.00000000	          0.00000000	          0.00000000	          0.00000000	          0.00000000	          0.00000000	          5.18302433	        297.69485875	        -20.13292148	         -0.28448062	          0.00000000	         -0.03470720	          0.00000000	          0.00000000	          0.00000000	          0.00000000	          0.34012253	          0.00000000	
          1.25500000	          0.00000000	          0.00000000	          0.00000000	          0.00000000	          0.00000000	          0.00000000	          0.34029593	        290.59634840	        -21.49630223	         -0.28382317	          0.00000000	         -0.03449339	          0.00000000	          0.00000000	          0.00000000	          0.00000000	          0.35835589	          0.00000000	
          1.25600000	          0.00000000	          0.00000000	          0.00000000	          0.00000000	          0.00000000	          0.00000000	         -4.32339207	        285.52490340	        -22.46638410	         -0.28317031	          0.00000000	         -0.03446311	          0.00000000	          0.00000000	          0.00000000	          0.00000000	          0.37939726	          0.00000000	
          1.25700000	          0.00000000	          0.00000000	          0.00000000	          0.00000000	          0.00000000	          0.00000000	         -8.70580520	        283.63240827	        -23.11897914	         -0.28253382	          0.00000000	         -0.03466890	          0.00000000	          0.00000000	          0.00000000	          0.00000000	          0.40213203	          0.00000000	
          1.25800000	          0.00000000	          0.00000000	          0.00000000	          0.00000000	          0.00000000	          0.00000000	        -12.84667472	        285.03296151	        -23.55162132	         -0.28192248	          0.00000000	         -0.03503065	          0.00000000	          0.00000000	          0.00000000	          0.00000000	          0.42651724	          0.00000000	
          1.25900000	          0.00000000	          0.00000000	          0.00000000	          0.00000000	          0.00000000	          0.00000000	        -16.86895120	        289.09782338	        -23.85764809	         -0.28133565	          0.00000000	         -0.03538922	          0.00000000	          0.00000000	          0.00000000	          0.00000000	          0.45350339	          0.00000000	
          1.26000000	          0.00000000	          0.00000000	          0.00000000	          0.00000000	          0.00000000	          0.00000000	        -20.90363715	        294.84512314	        -24.11342989	         -0.28076782	          0.00000000	         -0.03563689	          0.00000000	          0.00000000	          0.00000000	          0.00000000	          0.48228242	          0.00000000	
          1.26100000	          0.00000000	          0.00000000	          0.00000000	          0.00000000	          0.00000000	          0.00000000	        -25.04797231	        301.29953797	        -24.37014003	         -0.28023076	          0.00000000	         -0.03574118	          0.00000000	          0.00000000	          0.00000000	          0.00000000	          0.51226344	          0.00000000	
          1.26200000	          0.00000000	          0.00000000	          0.00000000	          0.00000000	          0.00000000	          0.00000000	        -29.37200977	        307.70543807	        -24.64315242	         -0.27974795	          0.00000000	         -0.03569864	          0.00000000	          0.00000000	          0.00000000	          0.00000000	          0.54806323	          0.00000000	
